<svg xmlns="http://www.w3.org/2000/svg" id="Layer_1" data-name="Layer 1" viewBox="0 0 800 800" width="20" height="20">
    <defs>
        <style>.cls-1{fill:#fff;}</style>
    </defs>
    <path class="cls-1" d="M698.21,0H101.79A101.81,101.81,0,0,0,0,101.79V698.17A101.82,101.82,0,0,0,101.79,800H698.21A101.82,101.82,0,0,0,800,698.17V101.79A101.81,101.81,0,0,0,698.21,0Zm-70.7,283.64A184.07,184.07,0,0,0,466.1,466.31a318.77,318.77,0,0,1-5.57,59.44,315.13,315.13,0,0,1-16.09,55.7,317.85,317.85,0,0,1-14.06,30.82q-7.14,13.63-15.54,26.49a25.78,25.78,0,0,1-21.57,11.63c-20.37,0-32.71-22.54-21.69-39.68.74-1.18,1.45-2.33,2.13-3.44,10.78-17.92,19.33-34.07,26.7-55.73a262.78,262.78,0,0,0,14-82.87v-.17c0-.71,0-1.45,0-2.19s0-1.46,0-2.2v-.17a234.23,234.23,0,0,1,30-112.74v0A235.85,235.85,0,0,1,621,232.41a25.82,25.82,0,1,1,6.49,51.23Zm-1-80.09A263.51,263.51,0,0,0,430.38,320.34a260.24,260.24,0,0,0-30,60.74,263.4,263.4,0,0,0-14.06,83v4.39a235.27,235.27,0,0,1-69,164.48c-3.82,3.82-7.78,7.51-11.83,11.06a25.77,25.77,0,0,1-16.9,6.35c-22.78,0-34.2-27.54-18.08-43.63l10.27-10.31A184.06,184.06,0,0,0,173.3,283.64a25.81,25.81,0,0,1,3.25-51.43,25.16,25.16,0,0,1,3.24.2A235.8,235.8,0,0,1,356.37,351.17a313.3,313.3,0,0,1,14.09-30.83A263.62,263.62,0,0,0,174.35,203.55a25.81,25.81,0,0,1,2.2-51.54c.74,0,1.52,0,2.33.1a315,315,0,0,1,221.53,121.5A315,315,0,0,1,622,152.11c.77-.06,1.55-.1,2.33-.1a25.81,25.81,0,0,1,2.16,51.54Z"></path>
</svg>